<?xml version="1.0" encoding="UTF-8" standalone="no"?>
<!DOCTYPE svg PUBLIC "-//W3C//DTD SVG 1.1//EN" "http://www.w3.org/Graphics/SVG/1.1/DTD/svg11.dtd">
<svg width="100%" height="100%" viewBox="0 0 1482 275" version="1.1" xmlns="http://www.w3.org/2000/svg" xmlns:xlink="http://www.w3.org/1999/xlink" xml:space="preserve" xmlns:serif="http://www.serif.com/" style="fill-rule:evenodd;clip-rule:evenodd;stroke-linejoin:round;stroke-miterlimit:2;">
    <g transform="matrix(16.818,0,0,16.818,-10704.8,-10496.1)">
        <g transform="matrix(17.828,0,0,17.828,635.868,637.005)">
            <path d="M0.2,-0.355C0.2,-0.503 0.306,-0.57 0.405,-0.57C0.503,-0.57 0.609,-0.503 0.609,-0.355C0.609,-0.207 0.503,-0.141 0.405,-0.141C0.306,-0.141 0.2,-0.207 0.2,-0.355ZM0.036,-0.354C0.036,-0.13 0.205,0.015 0.405,0.015C0.604,0.015 0.773,-0.13 0.773,-0.354C0.773,-0.579 0.604,-0.724 0.405,-0.724C0.205,-0.724 0.036,-0.579 0.036,-0.354Z" style="fill-rule:nonzero;"/>
        </g>
        <g transform="matrix(17.828,0,0,17.828,649.399,637.005)">
            <path d="M0.219,0.19L0.219,-0.039C0.242,-0.011 0.29,0.011 0.354,0.011C0.493,0.011 0.591,-0.098 0.591,-0.25C0.591,-0.399 0.504,-0.509 0.36,-0.509C0.289,-0.509 0.235,-0.478 0.214,-0.446L0.214,-0.497L0.067,-0.497L0.067,0.19L0.219,0.19ZM0.442,-0.249C0.442,-0.166 0.389,-0.125 0.329,-0.125C0.27,-0.125 0.217,-0.167 0.217,-0.249C0.217,-0.332 0.27,-0.372 0.329,-0.372C0.389,-0.372 0.442,-0.332 0.442,-0.249Z" style="fill-rule:nonzero;"/>
        </g>
        <g transform="matrix(17.828,0,0,17.828,659.597,637.005)">
            <path d="M0.182,-0.308C0.185,-0.345 0.217,-0.392 0.281,-0.392C0.353,-0.392 0.379,-0.346 0.381,-0.308L0.182,-0.308ZM0.392,-0.179C0.378,-0.14 0.347,-0.114 0.292,-0.114C0.233,-0.114 0.182,-0.154 0.179,-0.21L0.525,-0.21C0.526,-0.213 0.528,-0.236 0.528,-0.257C0.528,-0.417 0.433,-0.512 0.279,-0.512C0.15,-0.512 0.031,-0.41 0.031,-0.25C0.031,-0.083 0.153,0.015 0.29,0.015C0.416,0.015 0.495,-0.057 0.519,-0.143L0.392,-0.179Z" style="fill-rule:nonzero;"/>
        </g>
        <g transform="matrix(17.828,0,0,17.828,668.672,637.005)">
            <path d="M0.219,-0.285C0.219,-0.335 0.251,-0.372 0.301,-0.372C0.356,-0.372 0.382,-0.335 0.382,-0.286L0.382,-0L0.534,-0L0.534,-0.312C0.534,-0.421 0.478,-0.51 0.353,-0.51C0.302,-0.51 0.241,-0.487 0.214,-0.44L0.214,-0.497L0.067,-0.497L0.067,-0L0.219,-0L0.219,-0.285Z" style="fill-rule:nonzero;"/>
        </g>
        <g transform="matrix(17.828,0,0,17.828,678.388,637.005)">
            <path d="M0.352,0.016C0.508,0.016 0.633,-0.078 0.633,-0.256L0.633,-0.709L0.475,-0.709L0.475,-0.269C0.475,-0.183 0.427,-0.14 0.352,-0.14C0.277,-0.14 0.229,-0.183 0.229,-0.269L0.229,-0.709L0.071,-0.709L0.071,-0.256C0.071,-0.078 0.196,0.016 0.352,0.016Z" style="fill-rule:nonzero;"/>
        </g>
        <g transform="matrix(17.828,0,0,17.828,690.047,637.005)">
            <path d="M0.026,-0.141C0.03,-0.086 0.08,0.015 0.236,0.015C0.369,0.015 0.434,-0.068 0.434,-0.153C0.434,-0.226 0.384,-0.288 0.281,-0.309L0.215,-0.322C0.193,-0.326 0.176,-0.338 0.176,-0.359C0.176,-0.385 0.201,-0.402 0.23,-0.402C0.276,-0.402 0.297,-0.374 0.301,-0.341L0.427,-0.364C0.422,-0.422 0.372,-0.512 0.228,-0.512C0.117,-0.512 0.037,-0.438 0.037,-0.347C0.037,-0.277 0.079,-0.217 0.185,-0.194L0.242,-0.181C0.279,-0.173 0.291,-0.158 0.291,-0.14C0.291,-0.118 0.272,-0.097 0.233,-0.097C0.181,-0.097 0.157,-0.13 0.155,-0.164L0.026,-0.141Z" style="fill-rule:nonzero;"/>
        </g>
        <g transform="matrix(17.828,0,0,17.828,697.464,637.005)">
            <path d="M0.182,-0.308C0.185,-0.345 0.217,-0.392 0.281,-0.392C0.353,-0.392 0.379,-0.346 0.381,-0.308L0.182,-0.308ZM0.392,-0.179C0.378,-0.14 0.347,-0.114 0.292,-0.114C0.233,-0.114 0.182,-0.154 0.179,-0.21L0.525,-0.21C0.526,-0.213 0.528,-0.236 0.528,-0.257C0.528,-0.417 0.433,-0.512 0.279,-0.512C0.15,-0.512 0.031,-0.41 0.031,-0.25C0.031,-0.083 0.153,0.015 0.29,0.015C0.416,0.015 0.495,-0.057 0.519,-0.143L0.392,-0.179Z" style="fill-rule:nonzero;"/>
        </g>
        <g transform="matrix(17.828,0,0,17.828,706.538,637.005)">
            <path d="M0.383,-0.497C0.373,-0.5 0.358,-0.502 0.343,-0.502C0.303,-0.502 0.24,-0.486 0.214,-0.43L0.214,-0.497L0.067,-0.497L0.067,-0L0.219,-0L0.219,-0.217C0.219,-0.316 0.274,-0.352 0.335,-0.352C0.35,-0.352 0.366,-0.351 0.383,-0.347L0.383,-0.497Z" style="fill-rule:nonzero;"/>
        </g>
        <g transform="matrix(17.828,0,0,17.828,712.832,637.005)">
            <path d="M0.259,-0.709L0.18,-0.709L0.18,-0.574L0.058,-0.617L0.035,-0.545L0.159,-0.504L0.08,-0.4L0.141,-0.354L0.219,-0.462L0.302,-0.353L0.363,-0.399L0.281,-0.504L0.405,-0.545L0.382,-0.617L0.259,-0.575L0.259,-0.709Z" style="fill-rule:nonzero;"/>
        </g>
    </g>
</svg>
